<svg xmlns="http://www.w3.org/2000/svg" xmlns:xlink="http://www.w3.org/1999/xlink"><defs><symbol viewBox="0 0 15 15" id="add"><text dominant-baseline="text-before-edge" style="line-height:30px" font-family="'OpenSans-Semibold','OpenSans-Semibold'" font-size="30" font-style="none" font-weight="400"><tspan style="font-kerning:normal">+</tspan></text></symbol><symbol viewBox="0 0 15 15" id="add-group"><circle cx="7.5" cy="7.5" r="7.5" /><path fill-rule="evenodd" clip-rule="evenodd" d="M7 10h1V8h2V7H8V5H7v2H5v1h2v2z" /></symbol><symbol viewBox="0 0 21 17" id="apply"><path fill-rule="evenodd" clip-rule="evenodd" d="M21 2.668L18.299.053 7.298 10.706 2.701 6.254 0 8.87l7.417 7.183 2.701-2.616-.119-.116 11-10.653z" /></symbol><symbol viewBox="0 0 306 306" id="arrow-down"><path d="M94.35 0l-35.7 35.7L175.95 153 58.65 270.3l35.7 35.7 153-153z" /></symbol><symbol viewBox="0 0 13 20" id="arrow-next"><path d="M4.09.586A2 2 0 1 0 1.26 3.414L4.089.586zM10.674 10l1.414 1.414a2 2 0 0 0 0-2.828L10.675 10zm-9.414 6.586a2 2 0 1 0 2.828 2.828l-2.828-2.828zm0-13.172l8 8 2.828-2.828-8-8-2.828 2.828zm8 5.172l-8 8 2.828 2.828 8-8-2.828-2.828z" /></symbol><symbol viewBox="0 0 13 20" id="arrow-prev"><path d="M9.261 19.414a2 2 0 1 0 2.828-2.828l-2.828 2.828zM2.675 10L1.261 8.586a2 2 0 0 0 0 2.828L2.675 10zm9.414-6.586A2 2 0 0 0 9.261.586l2.828 2.828zm0 13.172l-8-8-2.828 2.828 8 8 2.828-2.828zm-8-5.172l8-8L9.261.586l-8 8 2.828 2.828z" /></symbol><symbol viewBox="0 0 27 21" id="burger-menu"><path fill-rule="evenodd" clip-rule="evenodd" d="M.93 2.604C.93 1.564 1.773.72 2.814.72h22.23a1.885 1.885 0 0 1 0 3.77H2.815A1.885 1.885 0 0 1 .93 2.603zm0 8.116c0-1.041.843-1.885 1.884-1.885h22.23a1.885 1.885 0 1 1 0 3.77H2.815A1.885 1.885 0 0 1 .93 10.72zm26 8.115c0-1.04-.844-1.885-1.885-1.885H2.815a1.885 1.885 0 1 0 0 3.77h22.23c1.04 0 1.885-.844 1.885-1.885z" /></symbol><symbol viewBox="0 0 17 17" id="cancel"><path fill-rule="evenodd" clip-rule="evenodd" d="M13.914 16.843l2.726-2.726-5.124-5.243 5.275-5.155L14.065.993 8.822 6.117 3.667.842.941 3.568l5.124 5.243L.79 13.966l2.726 2.726 5.243-5.124 5.155 5.275z" /></symbol><symbol viewBox="0 0 51 51" id="circle"><circle cx="25.534" cy="25.352" r="23" stroke-width="4" /></symbol><symbol viewBox="0 0 21 21" id="edit"><path fill-rule="evenodd" clip-rule="evenodd" d="M20.052 5.02l-2.831 2.784-4.412-4.337L15.64.684l4.412 4.337zm-3.554 3.473L6.22 18.593 1.8 14.25l10.276-10.1 4.42 4.344zM.053 20.684l5.364-1.272-4.452-4.375-.912 5.647z" /></symbol><symbol viewBox="0 0 475.084 475.084" id="github"><path d="M436.244 146.752c5.14-15.422 7.713-31.409 7.713-47.967 0-22.08-4.859-42.828-14.564-62.242-20.362 0-38.349 3.715-53.961 11.136-15.604 7.423-33.4 18.938-53.379 34.545-25.122-6.09-51.777-9.135-79.941-9.135-30.837 0-60.245 3.333-88.223 9.994-20.364-15.99-38.351-27.74-53.959-35.26-15.608-7.52-33.689-11.279-54.247-11.279-9.707 19.414-14.56 40.163-14.56 62.242 0 16.751 2.568 32.93 7.708 48.535C12.942 177.587 0 215.272 0 260.383c0 39.595 5.898 71.092 17.701 94.507 6.283 12.367 14.465 23.312 24.554 32.832 10.085 9.514 21.601 17.228 34.545 23.13 12.946 5.896 25.981 10.801 39.116 14.699 13.134 3.9 27.646 6.758 43.54 8.559 15.893 1.816 29.93 3.004 42.111 3.579 12.181.564 25.693.853 40.544.853 17.508 0 33.396-.432 47.678-1.283 14.277-.855 30.594-2.953 48.964-6.276 18.367-3.333 34.547-7.857 48.54-13.565 13.99-5.708 27.412-13.895 40.259-24.551 12.847-10.663 22.884-23.318 30.121-37.976 11.604-23.603 17.412-55.107 17.412-94.507-.007-45.302-12.95-83.178-38.841-113.632zm-34.249 207.703c-6.092 12.471-13.802 22.265-23.127 29.41-9.329 7.139-20.938 12.847-34.831 17.135-13.9 4.281-27.217 7.087-39.971 8.415-12.758 1.334-26.933 1.998-42.545 1.998h-47.966c-15.607 0-29.79-.664-42.541-1.998-12.752-1.328-26.075-4.134-39.971-8.415-13.891-4.288-25.5-9.996-34.829-17.135-9.329-7.146-17.037-16.939-23.128-29.41-6.09-12.471-9.136-27.076-9.136-43.824 0-22.847 6.567-42.264 19.702-58.245 13.134-15.99 30.929-23.982 53.387-23.982 8.188 0 26.746 1.997 55.677 5.995 13.513 2.093 28.456 3.14 44.823 3.14 16.372 0 31.313-1.044 44.824-3.14 29.317-3.999 47.869-5.995 55.678-5.995 22.457 0 40.252 7.996 53.386 23.982 13.135 15.988 19.698 35.398 19.698 58.245 0 16.751-3.046 31.364-9.13 43.824z" /><path d="M166.875 265.52c-5.806-6.475-12.703-9.712-20.699-9.712-7.998 0-14.896 3.241-20.701 9.712-5.802 6.468-9.897 13.703-12.275 21.689-2.383 8.002-3.571 15.804-3.571 23.422 0 7.61 1.191 15.413 3.571 23.414 2.375 7.991 6.468 15.222 12.275 21.689 5.808 6.475 12.703 9.713 20.701 9.713 7.996 0 14.896-3.244 20.699-9.713 5.804-6.468 9.897-13.698 12.275-21.689 2.38-8.001 3.571-15.804 3.571-23.414 0-7.611-1.188-15.42-3.571-23.422-2.379-7.983-6.468-15.215-12.275-21.689zM349.601 265.52c-5.804-6.475-12.703-9.712-20.697-9.712-7.991 0-14.894 3.241-20.701 9.712-5.804 6.468-9.896 13.703-12.271 21.689-2.385 8.002-3.576 15.804-3.576 23.422 0 7.61 1.191 15.413 3.576 23.414 2.375 7.991 6.468 15.222 12.271 21.689 5.808 6.475 12.71 9.713 20.701 9.713 7.994 0 14.894-3.244 20.697-9.713 5.801-6.468 9.896-13.698 12.278-21.689 2.379-8.001 3.569-15.804 3.569-23.414 0-7.611-1.19-15.42-3.569-23.422-2.381-7.983-6.477-15.215-12.278-21.689z" /></symbol><symbol viewBox="0 0 97.395 97.395" id="insta"><path d="M12.501 0h72.393c6.875 0 12.5 5.09 12.5 12.5v72.395c0 7.41-5.625 12.5-12.5 12.5H12.501C5.624 97.395 0 92.305 0 84.895V12.5C0 5.09 5.624 0 12.501 0zm58.447 10.821a4.395 4.395 0 0 0-4.383 4.385v10.495a4.396 4.396 0 0 0 4.383 4.385h11.008a4.398 4.398 0 0 0 4.385-4.385V15.206a4.397 4.397 0 0 0-4.385-4.385H70.948zm15.439 30.367h-8.572a28.486 28.486 0 0 1 1.25 8.355c0 16.2-13.556 29.332-30.275 29.332-16.718 0-30.272-13.132-30.272-29.332 0-2.904.438-5.708 1.25-8.355h-8.945v41.141a3.884 3.884 0 0 0 3.872 3.872h67.822a3.883 3.883 0 0 0 3.872-3.872V41.188h-.002zM48.789 29.533c-10.802 0-19.56 8.485-19.56 18.953s8.758 18.953 19.56 18.953c10.803 0 19.562-8.485 19.562-18.953s-8.758-18.953-19.562-18.953z" /></symbol><symbol viewBox="0 0 512.092 512.092" id="link"><path d="M312.453 199.601a116.167 116.167 0 0 0-20.053-16.128 119.472 119.472 0 0 0-64.427-18.859 118.952 118.952 0 0 0-84.48 34.987L34.949 308.23a119.466 119.466 0 0 0-34.91 84.318c-.042 65.98 53.41 119.501 119.39 119.543a118.7 118.7 0 0 0 84.395-34.816l89.6-89.6a8.534 8.534 0 0 0-6.059-14.592h-3.413a143.626 143.626 0 0 1-54.613-10.581 8.533 8.533 0 0 0-9.301 1.877l-64.427 64.512c-20.006 20.006-52.442 20.006-72.448 0-20.006-20.006-20.006-52.442 0-72.448l108.971-108.885c19.99-19.965 52.373-19.965 72.363 0 13.472 12.679 34.486 12.679 47.957 0a34.134 34.134 0 0 0 9.899-21.675 34.137 34.137 0 0 0-9.9-26.282z" /><path d="M477.061 34.993c-46.657-46.657-122.303-46.657-168.96 0l-89.515 89.429a8.533 8.533 0 0 0-1.792 9.387 8.532 8.532 0 0 0 8.021 5.205h3.157a143.357 143.357 0 0 1 54.528 10.667 8.533 8.533 0 0 0 9.301-1.877l64.256-64.171c20.006-20.006 52.442-20.006 72.448 0 20.006 20.006 20.006 52.442 0 72.448l-80.043 79.957-.683.768-27.989 27.819c-19.99 19.965-52.373 19.965-72.363 0-13.472-12.679-34.486-12.679-47.957 0a34.139 34.139 0 0 0-9.899 21.845 34.137 34.137 0 0 0 9.899 26.283 118.447 118.447 0 0 0 34.133 23.893c1.792.853 3.584 1.536 5.376 2.304 1.792.768 3.669 1.365 5.461 2.048a67.799 67.799 0 0 0 5.461 1.792l5.035 1.365c3.413.853 6.827 1.536 10.325 2.133 4.214.626 8.458 1.025 12.715 1.195H284.461l5.12-.597c1.877-.085 3.84-.512 6.059-.512h2.901l5.888-.853 2.731-.512 4.949-1.024h.939a119.456 119.456 0 0 0 55.381-31.403l108.629-108.629c46.66-46.657 46.66-122.303.003-168.96z" /></symbol><symbol viewBox="0 0 483.3 483.3" id="mail"><path d="M424.3 57.75H59.1c-32.6 0-59.1 26.5-59.1 59.1v249.6c0 32.6 26.5 59.1 59.1 59.1h365.1c32.6 0 59.1-26.5 59.1-59.1v-249.5c.1-32.6-26.4-59.2-59-59.2zm32.1 308.7c0 17.7-14.4 32.1-32.1 32.1H59.1c-17.7 0-32.1-14.4-32.1-32.1v-249.5c0-17.7 14.4-32.1 32.1-32.1h365.1c17.7 0 32.1 14.4 32.1 32.1v249.5h.1z" /><path d="M304.8 238.55l118.2-106c5.5-5 6-13.5 1-19.1-5-5.5-13.5-6-19.1-1l-163 146.3-31.8-28.4c-.1-.1-.2-.2-.2-.3-.7-.7-1.4-1.3-2.2-1.9L78.3 112.35c-5.6-5-14.1-4.5-19.1 1.1-5 5.6-4.5 14.1 1.1 19.1l119.6 106.9-119.1 111.5c-5.4 5.1-5.7 13.6-.6 19.1 2.7 2.8 6.3 4.3 9.9 4.3 3.3 0 6.6-1.2 9.2-3.6l120.9-113.1 32.8 29.3c2.6 2.3 5.8 3.4 9 3.4s6.5-1.2 9-3.5l33.7-30.2 120.2 114.2c2.6 2.5 6 3.7 9.3 3.7 3.6 0 7.1-1.4 9.8-4.2 5.1-5.4 4.9-14-.5-19.1l-118.7-112.7z" /></symbol><symbol viewBox="0 0 612 612" id="msg"><path d="M401.625 325.125h-191.25c-10.557 0-19.125 8.568-19.125 19.125s8.568 19.125 19.125 19.125h191.25c10.557 0 19.125-8.568 19.125-19.125s-8.568-19.125-19.125-19.125zm38.25-114.75h-267.75c-10.557 0-19.125 8.568-19.125 19.125s8.568 19.125 19.125 19.125h267.75c10.557 0 19.125-8.568 19.125-19.125s-8.568-19.125-19.125-19.125zM306 0C137.012 0 0 119.875 0 267.75c0 84.514 44.848 159.751 114.75 208.826V612l134.047-81.339c18.552 3.061 37.638 4.839 57.203 4.839 169.008 0 306-119.875 306-267.75S475.008 0 306 0zm0 497.25c-22.338 0-43.911-2.601-64.643-7.019l-90.041 54.123 1.205-88.701C83.5 414.133 38.25 345.513 38.25 267.75c0-126.741 119.875-229.5 267.75-229.5s267.75 102.759 267.75 229.5S453.875 497.25 306 497.25z" /></symbol><symbol viewBox="0 0 1026 1019" id="portofolio-logo"><path fill-rule="evenodd" clip-rule="evenodd" d="M516.896 1002.02c272.074 0 492.634-220.565 492.634-492.639 0-272.075-220.56-492.635-492.634-492.635-172.309 0-323.955 88.464-412 222.451 37.122 8.907 64.713 42.317 64.713 82.171 0 46.668-37.832 84.5-84.5 84.5-17.276 0-33.341-5.185-46.724-14.083-9.23 37.683-14.123 77.068-14.123 117.596 0 272.074 220.56 492.639 492.634 492.639zm0-1001.274C336.23.746 177.565 94.94 87.33 236.897a86.253 86.253 0 0 0-2.22-.029c-46.669 0-84.5 37.832-84.5 84.5 0 23.015 9.2 43.881 24.125 59.12-10.75 41.164-16.473 84.36-16.473 128.893 0 280.911 227.723 508.639 508.634 508.639s508.634-227.728 508.634-508.639S797.807.746 516.896.746zM416.412 368.001h-28v28h28v-28zm-256.595 208.88v-33.12h25.3v33.12h-25.3zm124.571 2.3c-9.507 0-17.787-2.07-24.84-6.21-7.054-4.294-12.574-10.044-16.56-17.25v70.15h-30.82v-169.51h26.91v20.7c4.446-7.054 10.196-12.574 17.25-16.56 7.053-4.14 15.18-6.21 24.38-6.21 8.126 0 15.64 1.686 22.54 5.06 6.9 3.22 12.803 7.666 17.71 13.34 5.06 5.52 8.97 12.113 11.73 19.78 2.913 7.513 4.37 15.486 4.37 23.92 0 8.74-1.304 16.943-3.91 24.61-2.607 7.666-6.287 14.336-11.04 20.01-4.6 5.673-10.12 10.12-16.56 13.34-6.44 3.22-13.494 4.83-21.16 4.83zm-10.35-26.22c4.6 0 8.816-.997 12.65-2.99 3.986-1.994 7.36-4.677 10.12-8.05 2.76-3.374 4.906-7.284 6.44-11.73a42.05 42.05 0 0 0 2.3-13.8c0-5.06-.844-9.737-2.53-14.03-1.687-4.447-4.064-8.28-7.13-11.5-2.914-3.22-6.44-5.75-10.58-7.59-3.987-1.84-8.357-2.76-13.11-2.76-2.914 0-5.904.536-8.97 1.61-3.067.92-5.904 2.3-8.51 4.14a40.383 40.383 0 0 0-7.13 6.44 28.056 28.056 0 0 0-4.6 8.05v28.29c2.76 6.9 6.976 12.65 12.65 17.25 5.673 4.446 11.806 6.67 18.4 6.67zm139.561 26.22c-9.813 0-18.63-1.687-26.45-5.06-7.82-3.374-14.49-7.897-20.01-13.57-5.367-5.827-9.507-12.497-12.42-20.01-2.913-7.514-4.37-15.41-4.37-23.69 0-8.434 1.457-16.407 4.37-23.92 2.913-7.514 7.053-14.107 12.42-19.78 5.52-5.827 12.19-10.427 20.01-13.8 7.82-3.374 16.637-5.06 26.45-5.06 9.813 0 18.553 1.686 26.22 5.06 7.82 3.373 14.413 7.973 19.78 13.8 5.52 5.673 9.737 12.266 12.65 19.78 2.913 7.513 4.37 15.486 4.37 23.92 0 8.28-1.457 16.176-4.37 23.69-2.913 7.513-7.053 14.183-12.42 20.01-5.367 5.673-11.96 10.196-19.78 13.57-7.82 3.373-16.637 5.06-26.45 5.06zm-31.51-62.33c0 5.366.767 10.273 2.3 14.72 1.687 4.293 3.91 8.05 6.67 11.27 2.913 3.22 6.287 5.75 10.12 7.59 3.833 1.686 7.973 2.53 12.42 2.53s8.587-.844 12.42-2.53a29.965 29.965 0 0 0 9.89-7.59c2.913-3.22 5.137-7.054 6.67-11.5 1.687-4.447 2.53-9.354 2.53-14.72 0-5.214-.843-10.044-2.53-14.49-1.533-4.447-3.757-8.28-6.67-11.5-2.76-3.22-6.057-5.674-9.89-7.36-3.833-1.84-7.973-2.76-12.42-2.76s-8.587.92-12.42 2.76c-3.833 1.84-7.207 4.37-10.12 7.59-2.76 3.22-4.983 7.053-6.67 11.5-1.533 4.446-2.3 9.276-2.3 14.49zm160.872 62.33c-10.12 0-20.01-1.61-29.67-4.83-9.66-3.22-17.94-7.82-24.84-13.8l11.5-19.32c7.36 5.213 14.49 9.2 21.39 11.96 7.054 2.606 14.03 3.91 20.93 3.91 6.134 0 10.964-1.15 14.49-3.45 3.527-2.3 5.29-5.597 5.29-9.89 0-4.294-2.07-7.437-6.21-9.43-4.14-1.994-10.886-4.294-20.24-6.9-7.82-2.147-14.49-4.217-20.01-6.21-5.52-1.994-9.966-4.217-13.34-6.67-3.373-2.607-5.826-5.52-7.36-8.74-1.533-3.374-2.3-7.36-2.3-11.96 0-6.134 1.15-11.654 3.45-16.56 2.454-4.907 5.827-9.047 10.12-12.42 4.294-3.527 9.277-6.21 14.95-8.05 5.827-1.84 12.114-2.76 18.86-2.76 9.047 0 17.48 1.303 25.3 3.91 7.974 2.606 15.257 6.823 21.85 12.65l-12.42 18.63c-6.133-4.6-12.113-7.974-17.94-10.12-5.673-2.147-11.346-3.22-17.02-3.22-5.213 0-9.583 1.073-13.11 3.22-3.526 2.146-5.29 5.596-5.29 10.35 0 2.146.384 3.91 1.15 5.29.92 1.38 2.3 2.606 4.14 3.68 1.84 1.073 4.217 2.146 7.13 3.22 3.067.92 6.824 1.916 11.27 2.99 8.28 2.146 15.334 4.293 21.16 6.44 5.98 2.146 10.81 4.6 14.49 7.36 3.834 2.76 6.594 5.98 8.28 9.66 1.84 3.526 2.76 7.82 2.76 12.88 0 11.806-4.37 21.16-13.11 28.06-8.74 6.746-20.623 10.12-35.65 10.12zm68.787-122.82h30.82v120.52h-30.82v-120.52zm0-16.79v-30.59h30.82v30.59h-30.82zm130.843 131.1c-4.14 1.84-9.2 3.68-15.18 5.52-5.98 1.84-12.267 2.76-18.86 2.76-4.294 0-8.357-.537-12.19-1.61-3.68-1.074-6.977-2.76-9.89-5.06-2.76-2.454-4.984-5.52-6.67-9.2-1.687-3.834-2.53-8.434-2.53-13.8v-69.23h-15.87v-23.69h15.87v-39.1h30.82v39.1h25.3v23.69h-25.3v58.88c0 4.293 1.073 7.36 3.22 9.2 2.3 1.686 5.06 2.53 8.28 2.53 3.22 0 6.363-.537 9.43-1.61 3.066-1.074 5.52-1.994 7.36-2.76l6.21 24.38zm69.021 8.51c-9.66 0-18.4-1.61-26.22-4.83-7.82-3.374-14.49-7.897-20.01-13.57-5.52-5.674-9.813-12.267-12.88-19.78-2.913-7.514-4.37-15.41-4.37-23.69 0-8.587 1.457-16.637 4.37-24.15 2.914-7.667 7.13-14.337 12.65-20.01 5.52-5.827 12.19-10.427 20.01-13.8 7.974-3.374 16.867-5.06 26.68-5.06 9.814 0 18.554 1.686 26.22 5.06 7.82 3.373 14.414 7.896 19.78 13.57 5.52 5.673 9.66 12.266 12.42 19.78 2.914 7.513 4.37 15.333 4.37 23.46 0 1.993-.076 3.91-.23 5.75 0 1.84-.153 3.373-.46 4.6h-93.15c.46 4.753 1.61 8.97 3.45 12.65 1.84 3.68 4.217 6.823 7.13 9.43a31.074 31.074 0 0 0 9.89 5.98 32.488 32.488 0 0 0 11.5 2.07c6.134 0 11.884-1.457 17.25-4.37 5.52-3.067 9.277-7.054 11.27-11.96l26.45 7.36c-4.446 9.2-11.576 16.79-21.39 22.77-9.66 5.826-21.236 8.74-34.73 8.74zm-31.28-72.68h62.56c-.766-9.047-4.14-16.254-10.12-21.62-5.826-5.52-12.956-8.28-21.39-8.28-4.14 0-8.05.766-11.73 2.3a29.005 29.005 0 0 0-9.43 5.98c-2.76 2.606-5.06 5.75-6.9 9.43-1.686 3.68-2.683 7.743-2.99 12.19zM267.375 673.809h28v28h-28v-28zm0-305.808h28v28h-28v-28z" /></symbol><symbol viewBox="0 0 95.333 95.332" id="quote"><path d="M30.512 43.939c-2.348-.676-4.696-1.019-6.98-1.019-3.527 0-6.47.806-8.752 1.793 2.2-8.054 7.485-21.951 18.013-23.516a2.501 2.501 0 0 0 2.04-1.799l2.301-8.23a2.5 2.5 0 0 0-2.068-3.15 17.477 17.477 0 0 0-2.354-.16c-12.637 0-25.152 13.19-30.433 32.076-3.1 11.08-4.009 27.738 3.627 38.223 4.273 5.867 10.507 9 18.529 9.313l.098.002c9.898 0 18.675-6.666 21.345-16.209a22.032 22.032 0 0 0-2.032-16.851c-2.875-5.105-7.61-8.826-13.334-10.473zM92.471 54.413c-2.875-5.106-7.61-8.827-13.334-10.474-2.348-.676-4.696-1.019-6.979-1.019a21.94 21.94 0 0 0-8.753 1.793c2.2-8.054 7.485-21.951 18.014-23.516a2.503 2.503 0 0 0 2.04-1.799l2.301-8.23a2.5 2.5 0 0 0-2.068-3.15 17.455 17.455 0 0 0-2.354-.16c-12.637 0-25.152 13.19-30.434 32.076-3.099 11.08-4.008 27.738 3.629 38.225 4.272 5.866 10.507 9 18.528 9.312l.099.002c9.897 0 18.675-6.666 21.345-16.209a22.045 22.045 0 0 0-2.034-16.851z" /></symbol><symbol viewBox="0 0 21 22" id="remove"><path fill-rule="evenodd" clip-rule="evenodd" d="M5.863.684h8.8v.778h5.6v2.333h-20V1.462h5.6V.684zm11.2 4.667h-13.6v16.333h13.6V5.351z" /></symbol><symbol viewBox="-90 0 512 512" id="scroll"><path d="M166.238 430.145l-89.77-94.899 29.06-27.488 60.632 64.097 60.274-64.058 29.132 27.41zM332 392V120C332 53.832 278.168 0 212 0h-92C53.832 0 0 53.832 0 120v272c0 66.168 53.832 120 120 120h92c66.168 0 120-53.832 120-120zM212 40c44.113 0 80 35.887 80 80v272c0 44.113-35.887 80-80 80h-92c-44.113 0-80-35.887-80-80V120c0-44.113 35.887-80 80-80zm-46 41c-11.047 0-20 8.953-20 20s8.953 20 20 20 20-8.953 20-20-8.953-20-20-20zm0 80c-11.047 0-20 8.953-20 20s8.953 20 20 20 20-8.953 20-20-8.953-20-20-20zm0 80c-11.047 0-20 8.953-20 20s8.953 20 20 20 20-8.953 20-20-8.953-20-20-20zm0 0" /></symbol><symbol viewBox="0 0 482.9 482.9" id="user"><path d="M239.7 260.2h3.2c29.3-.5 53-10.8 70.5-30.5 38.5-43.4 32.1-117.8 31.4-124.9-2.5-53.3-27.7-78.8-48.5-90.7C280.8 5.2 262.7.4 242.5 0H240.8c-11.1 0-32.9 1.8-53.8 13.7-21 11.9-46.6 37.4-49.1 91.1-.7 7.1-7.1 81.5 31.4 124.9 17.4 19.7 41.1 30 70.4 30.5zm-75.1-152.9c0-.3.1-.6.1-.8 3.3-71.7 54.2-79.4 76-79.4H241.9c27 .6 72.9 11.6 76 79.4 0 .3 0 .6.1.8.1.7 7.1 68.7-24.7 104.5-12.6 14.2-29.4 21.2-51.5 21.4h-1c-22-.2-38.9-7.2-51.4-21.4-31.7-35.6-24.9-103.9-24.8-104.5z" /><path d="M446.8 383.6v-.3c0-.8-.1-1.6-.1-2.5-.6-19.8-1.9-66.1-45.3-80.9-.3-.1-.7-.2-1-.3-45.1-11.5-82.6-37.5-83-37.8-6.1-4.3-14.5-2.8-18.8 3.3-4.3 6.1-2.8 14.5 3.3 18.8 1.7 1.2 41.5 28.9 91.3 41.7 23.3 8.3 25.9 33.2 26.6 56 0 .9 0 1.7.1 2.5.1 9-.5 22.9-2.1 30.9-16.2 9.2-79.7 41-176.3 41-96.2 0-160.1-31.9-176.4-41.1-1.6-8-2.3-21.9-2.1-30.9 0-.8.1-1.6.1-2.5.7-22.8 3.3-47.7 26.6-56 49.8-12.8 89.6-40.6 91.3-41.7 6.1-4.3 7.6-12.7 3.3-18.8-4.3-6.1-12.7-7.6-18.8-3.3-.4.3-37.7 26.3-83 37.8-.4.1-.7.2-1 .3-43.4 14.9-44.7 61.2-45.3 80.9 0 .9 0 1.7-.1 2.5v.3c-.1 5.2-.2 31.9 5.1 45.3 1 2.6 2.8 4.8 5.2 6.3 3 2 74.9 47.8 195.2 47.8s192.2-45.9 195.2-47.8c2.3-1.5 4.2-3.7 5.2-6.3 5-13.3 4.9-40 4.8-45.2z" /></symbol><symbol viewBox="0 0 548.358 548.358" id="vk"><path d="M545.451 400.298c-.664-1.431-1.283-2.618-1.858-3.569-9.514-17.135-27.695-38.167-54.532-63.102l-.567-.571-.284-.28-.287-.287h-.288c-12.18-11.611-19.893-19.418-23.123-23.415-5.91-7.614-7.234-15.321-4.004-23.13 2.282-5.9 10.854-18.36 25.696-37.397 7.807-10.089 13.99-18.175 18.556-24.267 32.931-43.78 47.208-71.756 42.828-83.939l-1.701-2.847c-1.143-1.714-4.093-3.282-8.846-4.712-4.764-1.427-10.853-1.663-18.278-.712l-82.224.568c-1.332-.472-3.234-.428-5.712.144l-3.713.859-1.431.715-1.136.859c-.952.568-1.999 1.567-3.142 2.995-1.137 1.423-2.088 3.093-2.848 4.996-8.952 23.031-19.13 44.444-30.553 64.238-7.043 11.803-13.511 22.032-19.418 30.693-5.899 8.658-10.848 15.037-14.842 19.126-4 4.093-7.61 7.372-10.852 9.849-3.237 2.478-5.708 3.525-7.419 3.142-1.715-.383-3.33-.763-4.859-1.143-2.663-1.714-4.805-4.045-6.42-6.995-1.622-2.95-2.714-6.663-3.285-11.136-.568-4.476-.904-8.326-1-11.563-.089-3.233-.048-7.806.145-13.706.198-5.903.287-9.897.287-11.991 0-7.234.141-15.085.424-23.555.288-8.47.521-15.181.716-20.125.194-4.949.284-10.185.284-15.705s-.336-9.849-1-12.991a44.442 44.442 0 0 0-2.99-9.137c-1.335-2.95-3.289-5.232-5.853-6.852-2.569-1.618-5.763-2.902-9.564-3.856-10.089-2.283-22.936-3.518-38.547-3.71-35.401-.38-58.148 1.906-68.236 6.855-3.997 2.091-7.614 4.948-10.848 8.562-3.427 4.189-3.905 6.475-1.431 6.851 11.422 1.711 19.508 5.804 24.267 12.275l1.715 3.429c1.334 2.474 2.666 6.854 3.999 13.134 1.331 6.28 2.19 13.227 2.568 20.837.95 13.897.95 25.793 0 35.689-.953 9.9-1.853 17.607-2.712 23.127-.859 5.52-2.143 9.993-3.855 13.418-1.715 3.426-2.856 5.52-3.428 6.28-.571.76-1.047 1.239-1.425 1.427a21.387 21.387 0 0 1-7.71 1.431c-2.667 0-5.901-1.334-9.707-4-3.805-2.666-7.754-6.328-11.847-10.992-4.093-4.665-8.709-11.184-13.85-19.558-5.137-8.374-10.467-18.271-15.987-29.691l-4.567-8.282c-2.855-5.328-6.755-13.086-11.704-23.267-4.952-10.185-9.329-20.037-13.134-29.554-1.521-3.997-3.806-7.04-6.851-9.134l-1.429-.859c-.95-.76-2.475-1.567-4.567-2.427a30.301 30.301 0 0 0-6.567-1.854l-78.229.568c-7.994 0-13.418 1.811-16.274 5.428l-1.143 1.711c-.571.953-.859 2.475-.859 4.57 0 2.094.571 4.664 1.714 7.707 11.42 26.84 23.839 52.725 37.257 77.659 13.418 24.934 25.078 45.019 34.973 60.237 9.897 15.229 19.985 29.602 30.264 43.112 10.279 13.515 17.083 22.176 20.412 25.981 3.333 3.812 5.951 6.662 7.854 8.565l7.139 6.851c4.568 4.569 11.276 10.041 20.127 16.416 8.853 6.379 18.654 12.659 29.408 18.85 10.756 6.181 23.269 11.225 37.546 15.126 14.275 3.905 28.169 5.472 41.684 4.716h32.834c6.659-.575 11.704-2.669 15.133-6.283l1.136-1.431c.764-1.136 1.479-2.901 2.139-5.276.668-2.379 1-5 1-7.851-.195-8.183.428-15.558 1.852-22.124 1.423-6.564 3.045-11.513 4.859-14.846 1.813-3.33 3.859-6.14 6.136-8.418 2.282-2.283 3.908-3.666 4.862-4.142.948-.479 1.705-.804 2.276-.999 4.568-1.522 9.944-.048 16.136 4.429 6.187 4.473 11.99 9.996 17.418 16.56 5.425 6.57 11.943 13.941 19.555 22.124 7.617 8.186 14.277 14.271 19.985 18.274l5.708 3.426c3.812 2.286 8.761 4.38 14.853 6.283 6.081 1.902 11.409 2.378 15.984 1.427l73.087-1.14c7.229 0 12.854-1.197 16.844-3.572 3.998-2.379 6.373-5 7.139-7.851.764-2.854.805-6.092.145-9.712-.677-3.611-1.344-6.136-2.008-7.563z" /></symbol></defs></svg>